<svg width="100" height="100" viewBox="0 0 100 100" fill="none" xmlns="http://www.w3.org/2000/svg">
<g id="gis:earth-north-o" clip-path="url(#clip0_20_2)">
<path id="Vector" d="M50 0C22.404 0 0 22.404 0 50C0 77.596 22.404 100 50 100C77.546 100 99.911 77.676 99.992 50.148C99.9971 50.0988 99.9998 50.0494 100 50C100 49.9556 99.998 49.9112 99.994 49.867C99.922 22.332 77.552 0 50 0ZM52.578 3.072C53.308 3.112 54.034 3.166 54.754 3.238C54.528 3.538 54.451 3.925 54.607 4.434C55.052 3.882 55.652 3.586 56.324 3.434C79.302 6.52 97 26.17 97 50C97 71.386 82.743 89.404 63.21 95.107C62.834 93.909 63.684 91.726 64.756 90.727C66.383 89.994 64.272 88.234 65.966 88.837C68.009 88.679 69.952 84.049 70.066 82.25C67.02 84.508 66.521 78.116 67.932 77.293C70.555 77.168 73.612 74.385 70.072 73.205C65.008 73.94 75.051 66.683 69.412 70.521C67.166 74.601 67.168 68.207 66.359 68.904C66.912 72.399 62.613 72.494 63.482 69.025C66.568 67.498 62.436 65.648 64.395 64.277C65.225 63.276 65.887 61.754 66.602 63.92C67.112 65.43 71.114 67.97 71.916 67.49C72.235 64.917 73.946 63.249 71.926 60.994C73.109 55.728 70.404 64.24 68.447 59.781C66.957 56.973 68.892 50.881 66.494 50.486C65.402 45.545 68.847 42.046 73.457 41.196C74.947 40.523 69.965 39.926 72.984 38.49C72.404 36.505 72.116 32.577 70.24 36.143C67.92 37.277 61.777 30.673 64.955 31.285C66.18 35.637 73.259 34.517 70.883 31.531C66.977 32.156 68.64 28.711 67.084 29.301C67.681 28.129 65.95 27.405 63.959 26.85C61.128 25.478 59.007 23.512 59.777 27.469C55.03 29.982 59.526 23.973 58.287 21.967C61.475 19.466 55.49 19.784 55.6 17.551C55.362 15.348 50.904 17.723 53.121 20.098C50.411 20.374 47.138 18.042 51.783 18.613C50.323 16.296 47.76 15.836 45.578 15.809C44.851 15.799 44.164 15.839 43.576 15.873C40.925 18.689 33.186 15.97 32.976 19.689C36.781 19.539 32.716 25.475 30.73 26.914C27.62 29.2 30.536 32.529 28.223 35.254C27.415 37.313 31.066 34.323 30.02 33.274C33.666 31.234 33.984 35.04 31.887 37.098C34.745 38.786 30.416 40.153 29.998 41.778C27.928 42.724 32.538 42.583 31.467 40.631C32.56 39.049 36.447 40.583 33.837 37.854C31.932 36.332 34.467 31.755 36.312 34.162C39.291 35.476 36.928 37.079 35.434 35.742C34.468 36.625 36.822 36.334 35.771 37.289C37.639 36.049 39.466 36.203 39.109 38.309C39.469 35.452 45.854 37.873 46.514 40.232C49.338 38.56 54.738 40.857 53.004 44.086C53.155 46.135 54.513 48.037 53.954 50.096C53.914 53.564 53.764 56.931 49.539 58.16C46.533 60.037 45.149 62.702 43.239 65.719C39.14 63.696 39.947 57.753 40.951 54.07C41.311 51.577 43.819 47.451 40.678 45.55C39.785 43.917 41.593 41.826 39.104 43.56C36.171 46.975 35.344 39.698 34.488 42.844C31.005 41.428 30.365 50.43 32.043 44.982C35.245 40.193 37.69 46.205 37.277 49.182C36.618 51.782 37.169 53.769 37.131 56.113C34.92 56.026 34.566 60.477 32.857 59.289C31.493 57.974 30.951 52.413 29.582 54.854C31.432 55.616 30.902 59.409 31.141 61.227C35.434 58.167 31.503 67.17 34.662 68.674C34.659 71.399 33.866 72.644 35.26 74.893C34.506 78.183 27.716 72.243 32.768 71.105C31.823 71.514 28.912 69.723 29.605 71.535C28.679 70.241 25.882 67.472 28.207 70.363C26.555 72.117 28.822 73.982 30.012 73.603C29.592 76.465 24.862 73.983 23.855 72.535C21.691 71.552 22.558 75.03 20.07 72.672C17.349 72.762 16.557 75.436 13.61 72.885C12.472 73.17 13.255 77.887 11.313 74.736C11.256 69.612 7.878 67.271 5.498 63.162C5.318 63.387 5.186 63.62 5.076 63.855C3.6963 59.3662 2.99654 54.6961 3 50C3 48.772 3.062 47.56 3.154 46.355C3.324 45.841 3.515 45.329 3.732 44.822C3.992 39.662 8.362 37.624 11.84 35.236C12.516 33.214 17.838 31.31 14.238 31.895C17.288 29.439 22.006 27.729 22.949 23.443C23.833 22.137 21.292 18.712 23.525 19.76C23.376 15.958 26.95 12.872 29.725 10.365C33.259 8.533 25.145 13.885 25.492 16.262C22.822 21.398 28.669 15.798 29.625 16.398C30.937 17.538 28.999 20.528 31.505 18.199C34.337 17.819 33.277 15.163 36.533 15.008C34.47 12.37 39.606 10.733 41.484 8.885C41.077 6.668 44.503 4.553 46.304 4.158C44.148 5.223 47.637 7.77 44.289 9.045C45.64 10.405 47.517 6.242 50.123 8.02C52.511 8.849 58.233 5.98 52.984 6.098C52.212 4.528 53.024 3.485 52.578 3.072ZM59.498 31.986C59.783 31.991 60.247 32.274 60.955 32.975C61.253 33.819 61.532 36.213 59.939 35.566C59.389 34.452 58.642 31.973 59.498 31.986ZM59.057 38.67C59.327 38.649 59.637 38.732 59.987 38.953C62.335 38.544 58.462 40.395 61.641 40.588C61.952 42.136 59.981 41.378 61.217 43.225L60.824 43.207C57.29 44.11 57.164 38.82 59.057 38.67ZM89.916 42.572C89.643 44.482 90.737 48.193 93.004 45.812C93.392 46.097 93.722 48.218 94.213 46.764C96.066 41.762 89.591 46.614 89.916 42.572ZM32.563 48.826C32.473 48.808 32.245 49.01 31.705 49.662C28.78 49.286 29.591 54.799 26.639 52.555C29.532 51.938 25.106 51.027 27.826 49.758C24.256 48.037 19.744 49.971 21.723 54.492C22.933 56.516 21.599 59.232 22.791 60.387L22.902 60.092V60.096C23.538 58.684 26.807 60.379 26.037 57.039C28.283 56.157 29.177 51.137 32.115 52.875C35.392 52.303 30.748 50.465 33.049 49.715C32.295 49.975 32.76 48.866 32.563 48.826ZM90.73 52.1C88.432 53.313 89.348 56.45 86.879 56.97C86.935 57.553 87.369 61.801 88.494 59.914C88.373 57.48 92.242 53.172 90.73 52.1ZM75.434 53.96C75.3114 53.9425 75.1865 53.9483 75.066 53.977C73.94 56.273 77.096 59.558 75.248 60.49C74.653 61.81 75.36 60.425 75.76 60.627C78.61 59.373 77.248 54.214 75.434 53.96ZM57.088 58.018C59.766 57.784 57.538 63.423 54.227 61.727C53.392 60.657 52.383 58.112 55.627 58.516C56.221 58.204 56.706 58.051 57.088 58.018ZM92.262 58.758C92.955 61.473 89.894 61.533 89.965 65.27C88.527 69.94 84.461 65.47 82.271 67.645C77.245 68.292 83.231 68.454 84.761 67.459C84.519 69.252 84.367 74.773 82.154 72.166C86.76 68.297 76.711 70.426 80.412 73.146C77.731 76.324 79.368 68.932 78.172 70.871C75.621 73.563 74.982 76.766 73.805 80.078C73.899 80.308 70.671 82.368 72.111 81.84C75.667 79.792 78.958 74.72 82.143 73.85C83.016 76.948 88.098 72.165 87.984 69.889C90.184 67.065 95.307 61.423 92.262 58.758ZM9.627 73.865C9.739 73.865 10.259 74.3 11.447 75.402C12.477 77.275 13.48 78.487 13.137 75.962C15.477 77.426 16.894 84.06 14.322 78.475C12.55 78.462 17.326 82.514 18.229 83.965C18.582 84.278 19.547 85.52 19.428 85.695C16.6775 83.3392 14.2072 80.6747 12.066 77.754C11.141 76.016 9.377 73.866 9.627 73.865ZM23.137 88.191C23.3 88.214 23.684 88.565 24.312 89.361C23.898 89.091 23.489 88.813 23.084 88.529C23.016 88.306 23.027 88.176 23.137 88.191Z" fill="#1a1a1a"/>
</g>
<defs>
<clipPath id="clip0_20_2">
<rect width="100" height="100" fill="white"/>
</clipPath>
</defs>
</svg>
