<svg width="100" height="100" viewBox="0 0 100 100" fill="none" xmlns="http://www.w3.org/2000/svg">
<g id="gis:earth-euro-africa" clip-path="url(#clip0_28_30)">
<path id="Vector" d="M50 0C22.404 0 0 22.404 0 50C0 77.596 22.404 100 50 100C77.546 100 99.911 77.676 99.992 50.148C99.9971 50.0988 99.9998 50.0494 100 50C100 49.9556 99.998 49.9112 99.994 49.867C99.922 22.332 77.552 0 50 0ZM50 3C52.776 3 55.49 3.254 58.133 3.715C58.771 5.111 62.236 5.411 58.563 5.166C57.147 7.186 51.544 3.043 47.813 5.213C46.694 6.789 39.613 8.485 42.273 11.041C46.06 10.354 41.856 10.974 41.969 12.854C40.033 13.524 37.283 16.724 37.322 13.449C36.842 11.051 39.484 8.842 35.207 10.639C34.972 11.945 28.533 14.459 31.754 15.037C35.141 13.337 30.401 17.735 34.344 16C31.653 17.22 33.694 18.551 32.459 21.24C28.106 19.205 26.1 23.062 25.189 26.76C26.221 26.857 26.571 27.396 26.471 28.04C26.993 28.091 27.731 28.163 28.064 28.193C30.247 28.026 32.257 26.595 33.299 24.51C35.782 22.617 37.814 21.53 40.822 21.672C39.379 21.427 37.454 27.754 40.379 25.359C39.121 19.994 45.959 25.877 44.461 25.91C41.948 26.282 41.141 26.926 43.305 28.74C44.812 29.887 45.738 24.348 47.58 25.313C47.335 24.258 43.027 20.863 43.664 21.041C43.811 21.082 44.221 21.315 45.006 21.809C48.552 22.925 47.971 27.499 51.191 29.107C53.431 32.02 56.897 27.418 59.346 28.814C59.43 30.736 61.598 30.541 61.514 28.482C63.959 30.354 61.254 34.969 57.859 33.123C54.635 34.981 50.026 28.71 48.074 33.467C47.204 35.711 44.225 31.73 42.992 31.645C38.687 32.122 42.82 27.437 39.838 26.935C35.995 26.902 32.041 28.515 28.34 28.275C26.327 28.894 25.064 29.72 23.861 30.463C22.706 32.187 20.436 33.417 18.101 36.717C17.673 37.377 16.929 38.195 16.043 39.187C14.831 43.31 13.346 47.437 13.58 51.727C16.223 54.515 16.843 61.249 22.035 60.715C25.465 62.487 28.063 59.427 31.279 60.455C31.872 63.796 38.144 62.405 36.453 65.75C34.688 69.746 39.846 71.673 40.689 75.31C42.891 78.946 37.367 82.736 41.803 85.865C44.259 89.935 47.105 96.118 52.983 93.713C57.556 93.42 60.353 89.563 63.209 86.932C62.95 82.106 71.668 82.632 69.717 76.496C68.567 75.772 69.789 72.871 69.157 71.844C69.811 70.499 72.115 66.668 74.344 64.793C77.761 62.143 79.194 57.997 80.322 53.986C79.624 50.613 78.032 53.914 76.004 53.771C70.608 55.772 76.131 51.451 78.162 50.221C81.028 48.532 83.816 45.651 84.447 42.581C87.103 39.711 78.034 36.923 83.732 37.861C87.335 37.158 89.183 36.73 90.105 40.18C93.635 41.576 93.354 47.973 95.342 51.457C96.372 50.187 95.96 51.174 96.398 52.701C97.548 49.404 95.125 44.091 95.878 39.805C96.6212 43.1525 96.9975 46.571 97 50C97 75.975 75.975 97 50 97C24.025 97 3 75.975 3 50C3 29.806 15.71 12.61 33.57 5.953C35.304 5.457 37.04 4.966 38.738 4.365C42.4234 3.45842 46.2047 3.0001 50 3ZM60.293 4.143C60.792 4.253 61.293 4.361 61.785 4.488C61.671 5.243 61.037 4.775 60.293 4.143ZM35.168 6.219C34.02 6.24 32.711 6.666 33.051 7.73C33.681 7.962 34.336 7.79 34.953 7.639C37.855 6.831 36.644 6.191 35.168 6.219ZM49.281 9.977C50.809 9.752 49.366 14.16 47 13.023C43.122 13.424 47.584 12.778 47.725 10.998C48.419 10.328 48.929 10.028 49.281 9.977ZM70.771 18.705C71.061 18.74 71.149 19.093 70.748 19.934C70.421 21.012 75.678 24.503 75.352 26.727C70.684 27.952 73.602 23.401 70.562 22.475C67.225 21.37 69.901 18.602 70.771 18.705ZM57.232 19.578C58.966 21.901 61.672 20.079 64.199 21.965C67.291 25.085 59.325 21.555 57.941 23.354C53.81 24.625 55.838 20.844 57.232 19.578ZM16.836 33.754C16.542 33.71 16.301 33.914 16.088 34.744C16.798 34.781 17.328 34.861 17.709 34.982L17.941 34.264C17.498 34.104 17.138 33.799 16.836 33.754ZM75.215 34.262C75.895 36.621 81.18 36.247 79.9 38.457L79.297 38.883C78.265 38.208 73.972 35.363 75.215 34.262ZM62.678 37.29C65.116 38.953 66.863 42.36 68.422 45.03C70.564 46.554 70.632 49.003 72.022 50.929C71.454 51.649 70.344 50.336 70.117 49.869C68.26 48.57 66.727 45.269 65.414 42.632C64.589 40.804 62.576 39.137 62.678 37.29ZM77.264 76.194C77.042 76.179 76.704 76.439 76.227 77.093C72.784 79.63 70.051 82.649 69.847 87.003C72.232 88.087 74.253 83.718 75.535 82.193C77.004 81.482 78.224 76.259 77.264 76.194Z" fill="#
#3b8539
"/>
</g>
<defs>
<clipPath id="clip0_28_30">
<rect width="100" height="100" fill="white"/>
</clipPath>
</defs>
</svg>
